<?xml version="1.0" standalone="no"?>
<!DOCTYPE svg PUBLIC "-//W3C//DTD SVG 20010904//EN"
 "http://www.w3.org/TR/2001/REC-SVG-20010904/DTD/svg10.dtd">
<svg version="1.0" xmlns="http://www.w3.org/2000/svg"
 width="560.000000pt" height="582.000000pt" viewBox="0 0 560.000000 582.000000"
 preserveAspectRatio="xMidYMid meet">

<g transform="translate(0.000000,582.000000) scale(0.100000,-0.100000)"
fill="#000000" stroke="none">
<path d="M5193 5588 c-39 -44 -103 -166 -103 -198 0 -60 77 -103 122 -67 29
22 118 181 118 210 0 66 -93 103 -137 55z"/>
<path d="M4394 5468 c-18 -8 -131 -188 -179 -284 -18 -36 -5 -88 25 -104 29
-15 76 -12 98 8 35 30 172 279 172 312 0 59 -61 95 -116 68z"/>
<path d="M4753 5455 c-30 -21 -83 -117 -83 -149 0 -37 41 -76 80 -76 38 0 69
30 104 98 33 65 33 77 -3 113 -33 32 -65 37 -98 14z"/>
<path d="M5404 5305 c-29 -20 -164 -257 -164 -287 0 -34 45 -78 81 -78 15 0
39 10 53 23 36 33 156 248 156 280 0 59 -77 97 -126 62z"/>
<path d="M4943 5158 c-40 -44 -153 -254 -153 -285 0 -41 36 -73 83 -73 29 0
40 6 60 33 52 70 147 245 147 269 0 14 -9 37 -21 52 -27 35 -86 36 -116 4z"/>
<path d="M4541 5092 c-12 -9 -44 -55 -71 -102 -34 -58 -50 -78 -50 -62 0 57
-84 92 -129 55 -11 -10 -125 -198 -252 -418 -127 -220 -241 -410 -252 -422
-25 -28 -76 -30 -106 -5 -46 37 -37 58 193 454 119 206 216 383 216 395 0 29
-35 70 -64 75 -62 12 -67 4 -340 -468 -143 -247 -397 -685 -564 -974 -168
-289 -319 -550 -337 -580 -17 -30 -57 -99 -88 -152 -32 -54 -83 -142 -114
-195 -30 -54 -155 -269 -276 -478 -287 -495 -319 -551 -389 -672 l-59 -103 61
-107 c104 -181 588 -1019 680 -1177 47 -81 90 -148 95 -148 6 0 75 111 154
248 78 137 213 371 299 519 256 445 401 695 456 790 29 50 99 171 156 270 57
99 158 275 225 390 109 188 294 510 515 895 43 74 177 307 299 516 151 262
221 391 221 411 0 41 -36 73 -83 73 -20 0 -37 3 -37 6 0 3 31 58 68 122 186
318 262 451 271 475 27 70 -62 138 -122 93 -9 -7 -40 -53 -68 -102 -59 -103
-69 -116 -69 -88 0 57 -97 86 -137 42 -11 -13 -62 -96 -114 -185 -74 -129 -99
-165 -122 -172 -30 -11 -66 -2 -84 20 -31 39 -26 57 56 203 45 78 81 152 81
163 0 11 -10 33 -21 48 -19 23 -28 26 -65 23 -24 -2 -44 -3 -44 -2 0 1 30 53
66 115 82 143 86 159 46 199 -35 34 -69 39 -101 12z m-264 -634 c34 -31 31
-82 -6 -119 -35 -34 -68 -37 -105 -8 -35 28 -35 76 0 118 32 38 76 42 111 9z
m-213 -359 c40 -31 34 -67 -31 -181 -75 -133 -97 -158 -136 -158 -41 0 -77 35
-77 73 0 36 120 249 153 272 30 21 59 19 91 -6z m513 -64 c37 -26 39 -68 4
-129 -33 -57 -45 -66 -92 -66 -38 0 -69 32 -69 71 0 34 42 114 68 129 25 14
65 12 89 -5z m-1001 -138 c44 -38 37 -67 -56 -227 -115 -201 -123 -210 -169
-210 -26 0 -44 7 -56 20 -32 35 -24 78 31 170 28 47 72 123 99 168 60 105 98
124 151 79z m377 -297 c45 -35 43 -64 -8 -154 -26 -45 -54 -87 -63 -93 -24
-20 -79 -16 -102 7 -31 31 -25 72 27 161 58 100 94 120 146 79z"/>
<path d="M0 4668 c0 -7 37 -76 81 -153 311 -536 397 -686 514 -890 72 -126
222 -392 333 -590 110 -198 234 -421 276 -495 42 -74 126 -226 188 -337 62
-112 115 -203 118 -202 5 0 726 1174 749 1219 13 27 8 36 -189 356 -111 181
-219 356 -240 389 -36 57 -131 213 -265 430 -34 55 -86 141 -116 190 l-56 90
-696 3 c-554 2 -697 0 -697 -10z"/>
</g>
</svg>
